# xmcd
#
# Track frame offsets: 
#        150
#        15608
#        31223
#        53779
#        66244
#        82751
#        100115
#        114077
#        128204
#        142194
#        156737
#        171449
#        188834
#        204051
#        217150
#
# Disc length: 3108 seconds
#
# Revision: 0
# Processed by: cddbd v1.5.1PL0 Copyright (c) Steve Scherf et al.
# Submitted via: ExactAudioCopy v0.95a5
#
DISCID=d00c220f
DTITLE=Scott Joplin - Scott Joplin Portrait
DYEAR=1900
DGENRE=Blues
TTITLE0=Lily Queen
TTITLE1=Heliotope Bouquet
TTITLE2=Pineapple Rag
TTITLE3=Something Doing
TTITLE4=Paragon Rag
TTITLE5=Aereal Slow Rag
TTITLE6=The Entertainer
TTITLE7=Sun Flower Slow Drag
TTITLE8=Maple Leaf Rag
TTITLE9=Elite Sincopations
TTITLE10=Cleopha
TTITLE11=The Chrysanthemum
TTITLE12=Leola
TTITLE13=Euphonic Sounds
TTITLE14=Eugenia
EXTD=
EXTT0=
EXTT1=
EXTT2=
EXTT3=
EXTT4=
EXTT5=
EXTT6=
EXTT7=
EXTT8=
EXTT9=
EXTT10=
EXTT11=
EXTT12=
EXTT13=
EXTT14=
PLAYORDER=
